
<svg version="1.0" xmlns="http://www.w3.org/2000/svg"
 width="225.000000pt" height="225.000000pt" viewBox="0 0 225.000000 225.000000"
 preserveAspectRatio="xMidYMid meet">

<g transform="translate(0.000000,225.000000) scale(0.100000,-0.100000)"
fill="#000000" stroke="none">
<path d="M0 1130 l0 -1120 398 0 c312 0 399 3 399 13 3 61 28 267 34 267 12 0
27 -25 38 -65 10 -33 9 -55 -8 -127 l-19 -88 119 0 120 0 -17 32 c-29 57 -76
121 -132 180 -40 42 -55 66 -57 90 -2 27 -7 34 -29 36 -37 5 -33 22 21 82 l47
53 13 -31 c12 -29 11 -33 -12 -56 -14 -14 -25 -31 -25 -38 0 -7 26 -49 57 -93
31 -44 78 -116 105 -160 26 -44 48 -75 48 -69 0 21 181 285 190 279 14 -8 12
-46 -3 -71 -7 -11 -45 -65 -84 -121 -40 -55 -73 -103 -73 -107 0 -3 20 -6 45
-6 32 0 45 4 45 14 0 18 87 136 101 136 6 0 -3 -24 -19 -52 -16 -29 -33 -63
-37 -76 -6 -19 -3 -22 24 -22 17 0 31 5 31 11 0 22 72 100 123 134 61 41 86
46 63 13 -17 -24 -21 -58 -7 -58 27 0 117 112 180 225 14 26 36 46 62 58 72
34 72 18 -4 -85 -73 -99 -171 -249 -183 -280 -6 -17 15 -18 345 -18 l351 0 0
1120 0 1120 -1125 0 -1125 0 0 -1120z m1206 691 c23 -10 51 -33 63 -50 23 -31
92 -183 105 -231 6 -21 4 -20 -13 8 -17 26 -27 32 -55 32 -47 0 -88 53 -91
119 -3 62 -27 105 -65 121 -29 12 -110 10 -205 -5 -16 -2 -7 2 20 9 75 21 192
19 241 -3z m-356 -35 c-171 -60 -216 -108 -155 -166 13 -12 22 -27 19 -32 -3
-5 0 -15 6 -23 7 -8 9 -15 5 -15 -5 0 0 -9 9 -19 14 -15 15 -24 7 -40 -15 -27
-14 -57 4 -91 13 -26 21 -30 55 -30 45 0 61 -15 28 -25 -26 -8 -58 -34 -58
-47 0 -4 10 -8 22 -8 17 0 19 -3 10 -12 -18 -18 -14 -31 8 -25 10 3 20 1 22
-4 2 -4 86 16 188 46 102 29 219 60 260 68 41 7 92 22 113 31 22 9 36 12 32 6
-4 -7 7 -4 24 4 17 9 31 19 31 22 0 2 -9 0 -20 -6 -11 -6 -20 -8 -20 -6 0 3
14 13 31 22 23 11 29 12 24 2 -3 -7 0 -5 8 5 19 23 174 117 193 117 18 0 18
-4 -1 -39 -20 -39 -104 -113 -186 -164 -38 -23 -69 -46 -69 -52 -1 -11 -63
-58 -117 -90 -18 -11 -33 -25 -33 -31 0 -6 -16 -24 -35 -38 -39 -30 -51 -13
-14 20 21 19 21 19 -62 24 l-84 5 83 53 c46 30 117 72 158 94 83 45 96 57 31
29 -52 -22 -178 -101 -335 -210 -62 -43 -151 -99 -197 -125 l-85 -48 43 -48
c49 -54 73 -120 64 -175 -5 -30 6 -55 19 -43 2 3 8 38 13 78 12 94 23 104 50
47 12 -25 27 -50 34 -55 18 -14 177 3 218 23 38 19 109 84 109 99 0 5 -7 1
-15 -10 -17 -23 -16 -25 -19 56 -2 36 -7 74 -11 84 -7 16 -5 18 8 13 12 -4 17
1 19 21 4 35 20 32 33 -7 l11 -31 77 76 77 76 16 -38 c29 -69 28 -94 -8 -164
-35 -69 -120 -148 -188 -176 -87 -36 -110 -48 -110 -56 0 -4 7 -8 16 -8 10 0
-2 -19 -35 -56 -29 -31 -50 -59 -47 -62 9 -8 54 26 87 68 23 28 35 37 40 28 5
-8 0 -21 -11 -33 -23 -25 -23 -65 1 -65 34 0 29 -30 -13 -76 -22 -24 -34 -42
-25 -38 31 12 17 -3 -42 -45 -33 -22 -73 -44 -91 -47 -41 -9 -63 12 -136 130
-32 50 -66 101 -77 113 -13 14 -17 28 -12 43 7 21 6 21 -19 5 -19 -12 -36 -15
-62 -11 -65 13 -153 126 -154 198 l0 26 -47 -14 c-63 -19 -147 -18 -167 2 -48
47 2 106 131 154 111 41 118 48 104 91 -32 102 -43 176 -48 327 -6 188 -8 184
92 235 70 35 203 86 225 86 8 0 -14 -11 -50 -23z m307 -677 c46 -29 77 -98 71
-160 -6 -56 -28 -93 -79 -127 -28 -19 -44 -23 -85 -20 -90 8 -146 71 -146 168
0 77 37 130 109 156 44 15 84 10 130 -17z m-260 -141 c-3 -7 -5 -2 -5 12 0 14
2 19 5 13 2 -7 2 -19 0 -25z m788 -12 c8 -21 30 -55 49 -74 21 -20 36 -44 36
-58 0 -15 24 -50 65 -96 36 -39 65 -75 65 -80 0 -4 -11 -8 -25 -8 -14 0 -25 4
-25 9 0 5 -10 11 -22 13 -19 2 -24 10 -26 41 l-3 39 -40 -7 c-41 -7 -53 7 -27
33 9 9 9 12 -1 12 -25 0 -80 -41 -113 -83 -18 -23 -36 -44 -40 -47 -4 -3 -9
-64 -10 -135 l-3 -130 -100 -7 c-55 -3 -101 -5 -103 -3 -2 1 12 27 31 56 34
53 111 203 160 309 14 30 32 90 41 134 25 127 64 162 91 82z m-855 6 c0 8 7
15 15 15 22 0 18 -24 -4 -30 -13 -3 -27 3 -38 17 l-18 21 23 -19 c18 -15 22
-16 22 -4z m47 -14 c-3 -8 -6 -5 -6 6 -1 11 2 17 5 13 3 -3 4 -12 1 -19z"/>
<path d="M1425 1350 c3 -5 8 -10 11 -10 2 0 4 5 4 10 0 6 -5 10 -11 10 -5 0
-7 -4 -4 -10z"/>
<path d="M1307 1002 c-19 -20 -23 -42 -7 -42 12 0 32 38 28 51 -2 6 -11 2 -21
-9z"/>
<path d="M677 958 c-44 -19 -47 -23 -47 -57 0 -79 88 -181 157 -181 40 0 53
16 53 67 0 53 -22 108 -58 146 -42 45 -53 47 -105 25z"/>
<path d="M1002 1100 c-67 -41 -92 -131 -56 -206 36 -75 130 -105 193 -62 76
52 98 122 63 201 -36 81 -127 111 -200 67z"/>
</g>
</svg>
