
<svg xmlns="http://www.w3.org/2000/svg" version="1.1" width="600px" height="360px" style="shape-rendering:geometricPrecision; text-rendering:geometricPrecision; image-rendering:optimizeQuality; fill-rule:evenodd; clip-rule:evenodd" xmlns:xlink="http://www.w3.org/1999/xlink">
<g><path style="opacity:1" fill="#fefefe" d="M -0.5,-0.5 C 199.5,-0.5 399.5,-0.5 599.5,-0.5C 599.5,119.5 599.5,239.5 599.5,359.5C 399.5,359.5 199.5,359.5 -0.5,359.5C -0.5,239.5 -0.5,119.5 -0.5,-0.5 Z"/></g>
<g><path style="opacity:1" fill="#d7e7f6" d="M 127.5,128.5 C 162.329,127.502 197.329,127.168 232.5,127.5C 232.737,128.791 232.404,129.791 231.5,130.5C 197.183,128.507 162.516,127.84 127.5,128.5 Z"/></g>
<g><path style="opacity:1" fill="#1383c6" d="M 471.5,154.5 C 465.69,153.51 459.69,153.177 453.5,153.5C 453.918,152.778 454.584,152.278 455.5,152C 454.121,146.454 452.454,140.954 450.5,135.5C 448.143,135.663 445.81,135.497 443.5,135C 446.167,134.667 448.833,134.333 451.5,134C 443.5,133.333 435.5,133.333 427.5,134C 429.833,134.333 432.167,134.667 434.5,135C 430.144,134.781 426.644,136.281 424,139.5C 424.326,143.47 424.326,147.47 424,151.5C 422.989,152.337 421.822,152.67 420.5,152.5C 419.448,152.649 418.448,152.483 417.5,152C 418.457,146.523 419.457,141.023 420.5,135.5C 421.552,135.649 422.552,135.483 423.5,135C 420.774,134.818 418.107,134.318 415.5,133.5C 436.833,132.833 458.167,132.167 479.5,131.5C 466.179,130.61 452.846,130.61 439.5,131.5C 430.602,131.613 421.768,130.946 413,129.5C 409.208,130.31 405.375,130.644 401.5,130.5C 403.292,129.691 405.292,129.191 407.5,129C 435.5,128.333 463.5,128.333 491.5,129C 484.97,137.686 478.303,146.186 471.5,154.5 Z"/></g>
<g><path style="opacity:1" fill="#137fc3" d="M 127.5,128.5 C 162.516,127.84 197.183,128.507 231.5,130.5C 228.637,138.422 225.97,146.422 223.5,154.5C 210.816,154.832 198.149,154.499 185.5,153.5C 183.088,150.88 180.255,148.88 177,147.5C 171.352,149.351 165.519,150.018 159.5,149.5C 159.657,150.873 159.49,152.207 159,153.5C 158.667,152.833 158.333,152.167 158,151.5C 157.163,159.651 156.33,167.651 155.5,175.5C 155.5,168.5 155.5,161.5 155.5,154.5C 139.658,154.83 123.991,154.496 108.5,153.5C 114.441,144.889 120.775,136.555 127.5,128.5 Z"/></g>
<g><path style="opacity:1" fill="#177fc2" d="M 284.5,151.5 C 285.288,154.632 284.288,157.298 281.5,159.5C 280.808,158.975 280.308,158.308 280,157.5C 279.502,160.817 279.335,164.15 279.5,167.5C 280.833,167.5 282.167,167.5 283.5,167.5C 283.169,175.528 283.502,183.528 284.5,191.5C 285.141,193.296 286.141,194.796 287.5,196C 286.296,198.277 284.63,198.777 282.5,197.5C 282.977,196.522 283.643,195.689 284.5,195C 282.443,191.7 281.443,191.867 281.5,195.5C 280.5,195.5 279.5,195.5 278.5,195.5C 273.44,186.382 268.606,177.048 264,167.5C 258.944,188.615 253.444,209.615 247.5,230.5C 237.167,230.5 226.833,230.5 216.5,230.5C 225.381,198.974 234.881,167.641 245,136.5C 254.323,126.562 264.323,125.896 275,134.5C 278.191,140.221 281.358,145.888 284.5,151.5 Z"/></g>
<g><path style="opacity:1" fill="#2283c5" d="M 420.5,152.5 C 431.321,153.495 442.321,153.828 453.5,153.5C 459.69,153.177 465.69,153.51 471.5,154.5C 451.671,155.332 431.671,155.832 411.5,156C 405.953,157.44 400.953,159.94 396.5,163.5C 393.586,154.258 390.586,145.092 387.5,136C 391.528,132.71 396.195,130.876 401.5,130.5C 405.375,130.644 409.208,130.31 413,129.5C 421.768,130.946 430.602,131.613 439.5,131.5C 452.846,130.61 466.179,130.61 479.5,131.5C 458.167,132.167 436.833,132.833 415.5,133.5C 418.107,134.318 420.774,134.818 423.5,135C 422.552,135.483 421.552,135.649 420.5,135.5C 419.457,141.023 418.457,146.523 417.5,152C 418.448,152.483 419.448,152.649 420.5,152.5 Z"/></g>
<g><path style="opacity:1" fill="#108dcd" d="M 453.5,153.5 C 442.321,153.828 431.321,153.495 420.5,152.5C 421.822,152.67 422.989,152.337 424,151.5C 424.326,147.47 424.326,143.47 424,139.5C 426.644,136.281 430.144,134.781 434.5,135C 432.167,134.667 429.833,134.333 427.5,134C 435.5,133.333 443.5,133.333 451.5,134C 448.833,134.333 446.167,134.667 443.5,135C 445.81,135.497 448.143,135.663 450.5,135.5C 452.454,140.954 454.121,146.454 455.5,152C 454.584,152.278 453.918,152.778 453.5,153.5 Z"/></g>
<g><path style="opacity:1" fill="#158dcc" d="M 399.5,198.5 C 398.85,198.804 398.183,199.137 397.5,199.5C 396.38,198.167 395.047,197.667 393.5,198C 393.833,198.333 394.167,198.667 394.5,199C 392.617,201.666 390.617,204.166 388.5,206.5C 388.709,207.086 389.043,207.586 389.5,208C 386.853,210.657 383.853,212.823 380.5,214.5C 383.855,217.091 387.522,217.924 391.5,217C 390.167,218 390.167,219 391.5,220C 390.328,220.353 389.162,220.187 388,219.5C 386.941,219.63 386.108,220.13 385.5,221C 386.833,221.333 388.167,221.667 389.5,222C 388.944,222.383 388.611,222.883 388.5,223.5C 377.546,218.38 369.379,210.38 364,199.5C 361.335,188.838 358.668,178.172 356,167.5C 348.422,184.334 339.588,200.334 329.5,215.5C 327.267,211.78 326.934,208.113 328.5,204.5C 325.934,203.721 323.934,202.221 322.5,200C 321.552,199.517 320.552,199.351 319.5,199.5C 319.665,195.818 319.499,192.152 319,188.5C 318.626,189.416 318.126,190.25 317.5,191C 318.283,193.619 318.283,196.452 317.5,199.5C 316.236,195.82 316.236,192.153 317.5,188.5C 317.043,187.702 316.376,187.369 315.5,187.5C 324.632,169.235 334.799,151.569 346,134.5C 353.296,127.954 361.463,126.787 370.5,131C 373.762,133.592 376.262,136.759 378,140.5C 382.933,157.965 388.266,175.299 394,192.5C 396.04,194.37 397.873,196.37 399.5,198.5 Z"/></g>
<g><path style="opacity:1" fill="#1886c9" d="M 223.5,154.5 C 211.345,155.495 199.011,155.829 186.5,155.5C 185.71,156.609 185.21,157.942 185,159.5C 184.833,171 184.667,182.5 184.5,194C 184.501,205.853 185.168,217.353 186.5,228.5C 176.554,230.475 166.221,231.142 155.5,230.5C 155.5,212.167 155.5,193.833 155.5,175.5C 156.33,167.651 157.163,159.651 158,151.5C 158.333,152.167 158.667,152.833 159,153.5C 159.49,152.207 159.657,150.873 159.5,149.5C 165.519,150.018 171.352,149.351 177,147.5C 180.255,148.88 183.088,150.88 185.5,153.5C 198.149,154.499 210.816,154.832 223.5,154.5 Z"/></g>
<g><path style="opacity:1" fill="#108dcd" d="M 158.5,159.5 C 166.833,159.5 175.167,159.5 183.5,159.5C 183.5,171.833 183.5,184.167 183.5,196.5C 180.575,196.46 177.909,197.293 175.5,199C 170.177,199.499 164.844,199.666 159.5,199.5C 158.374,193.536 158.041,180.202 158.5,159.5 Z"/></g>
<g><path style="opacity:1" fill="#1383c6" d="M 284.5,151.5 C 293.968,165.017 302.301,179.35 309.5,194.5C 310.167,195.833 310.833,195.833 311.5,194.5C 312.608,191.941 313.941,189.608 315.5,187.5C 316.376,187.369 317.043,187.702 317.5,188.5C 316.236,192.153 316.236,195.82 317.5,199.5C 318.283,196.452 318.283,193.619 317.5,191C 318.126,190.25 318.626,189.416 319,188.5C 319.499,192.152 319.665,195.818 319.5,199.5C 320.552,199.351 321.552,199.517 322.5,200C 323.934,202.221 325.934,203.721 328.5,204.5C 326.934,208.113 327.267,211.78 329.5,215.5C 325.194,228.572 316.194,233.405 302.5,230C 298.388,228.221 295.222,225.388 293,221.5C 288.339,212.689 283.506,204.022 278.5,195.5C 279.5,195.5 280.5,195.5 281.5,195.5C 281.443,191.867 282.443,191.7 284.5,195C 283.643,195.689 282.977,196.522 282.5,197.5C 284.63,198.777 286.296,198.277 287.5,196C 286.141,194.796 285.141,193.296 284.5,191.5C 283.502,183.528 283.169,175.528 283.5,167.5C 282.167,167.5 280.833,167.5 279.5,167.5C 279.335,164.15 279.502,160.817 280,157.5C 280.308,158.308 280.808,158.975 281.5,159.5C 284.288,157.298 285.288,154.632 284.5,151.5 Z"/></g>
<g><path style="opacity:1" fill="#5db0d7" d="M 108.5,153.5 C 123.991,154.496 139.658,154.83 155.5,154.5C 155.5,161.5 155.5,168.5 155.5,175.5C 155.5,193.833 155.5,212.167 155.5,230.5C 154.502,205.672 154.169,180.672 154.5,155.5C 138.819,155.833 123.152,155.499 107.5,154.5C 107.624,153.893 107.957,153.56 108.5,153.5 Z"/></g>
<g><path style="opacity:1" fill="#bdd4e8" d="M 415.5,203.5 C 440.842,203.167 466.175,203.5 491.5,204.5C 491.376,205.107 491.043,205.44 490.5,205.5C 465.5,204.833 440.5,204.167 415.5,203.5 Z"/></g>
<g><path style="opacity:1" fill="#1480c3" d="M 399.5,198.5 C 404.337,201.67 409.67,203.337 415.5,203.5C 440.5,204.167 465.5,204.833 490.5,205.5C 484.538,213.908 478.205,222.074 471.5,230C 450.167,230.667 428.833,230.667 407.5,230C 400.76,228.699 394.426,226.532 388.5,223.5C 388.611,222.883 388.944,222.383 389.5,222C 388.167,221.667 386.833,221.333 385.5,221C 386.108,220.13 386.941,219.63 388,219.5C 389.162,220.187 390.328,220.353 391.5,220C 390.167,219 390.167,218 391.5,217C 387.522,217.924 383.855,217.091 380.5,214.5C 383.853,212.823 386.853,210.657 389.5,208C 389.043,207.586 388.709,207.086 388.5,206.5C 390.617,204.166 392.617,201.666 394.5,199C 394.167,198.667 393.833,198.333 393.5,198C 395.047,197.667 396.38,198.167 397.5,199.5C 398.183,199.137 398.85,198.804 399.5,198.5 Z"/></g>
<g><path style="opacity:1" fill="#1b8bc4" d="M 186.5,155.5 C 186.5,179.833 186.5,204.167 186.5,228.5C 185.168,217.353 184.501,205.853 184.5,194C 184.667,182.5 184.833,171 185,159.5C 185.21,157.942 185.71,156.609 186.5,155.5 Z"/></g>
</svg>
